<mxfile host="app.diagrams.net" agent="Mozilla/5.0 (Windows NT 10.0; Win64; x64; rv:143.0) Gecko/20100101 Firefox/143.0" version="28.2.5">
  <diagram name="Page-1" id="k1VUjH_LTuHps8FeMgKQ">
    <mxGraphModel grid="1" page="1" gridSize="10" guides="1" tooltips="1" connect="1" arrows="1" fold="1" pageScale="1" pageWidth="827" pageHeight="1169" math="0" shadow="0">
      <root>
        <mxCell id="0" />
        <mxCell id="1" parent="0" />
        <mxCell id="1QhZOuZquOIHlOz2GY8C-173" value="V_pagina-admin" style="rounded=0;whiteSpace=wrap;html=1;fillColor=#ffe6cc;strokeColor=#d79b00;" vertex="1" parent="1">
          <mxGeometry x="-640" y="140" width="120" height="60" as="geometry" />
        </mxCell>
        <mxCell id="1QhZOuZquOIHlOz2GY8C-174" value="&lt;div&gt;C_revisar-admin&lt;/div&gt;&lt;div&gt;(route.ts)&lt;/div&gt;" style="rounded=0;whiteSpace=wrap;html=1;fillColor=#e1d5e7;strokeColor=#9673a6;" vertex="1" parent="1">
          <mxGeometry x="-255" y="140" width="120" height="60" as="geometry" />
        </mxCell>
        <mxCell id="1QhZOuZquOIHlOz2GY8C-175" value="reviews" style="rounded=0;whiteSpace=wrap;html=1;fillColor=#d5e8d4;strokeColor=#82b366;" vertex="1" parent="1">
          <mxGeometry x="85" y="140" width="120" height="60" as="geometry" />
        </mxCell>
        <mxCell id="1QhZOuZquOIHlOz2GY8C-176" value="Actor" style="shape=umlActor;verticalLabelPosition=bottom;verticalAlign=top;html=1;outlineConnect=0;" vertex="1" parent="1">
          <mxGeometry x="-750" y="140" width="30" height="60" as="geometry" />
        </mxCell>
        <mxCell id="1QhZOuZquOIHlOz2GY8C-177" style="edgeStyle=orthogonalEdgeStyle;rounded=0;orthogonalLoop=1;jettySize=auto;html=1;exitX=0.5;exitY=1;exitDx=0;exitDy=0;" edge="1" parent="1" source="1QhZOuZquOIHlOz2GY8C-173" target="1QhZOuZquOIHlOz2GY8C-173">
          <mxGeometry relative="1" as="geometry" />
        </mxCell>
        <mxCell id="1QhZOuZquOIHlOz2GY8C-178" value="" style="endArrow=none;dashed=1;html=1;dashPattern=1 3;strokeWidth=2;rounded=0;entryX=0.5;entryY=0.5;entryDx=0;entryDy=0;entryPerimeter=0;" edge="1" parent="1" target="1QhZOuZquOIHlOz2GY8C-176">
          <mxGeometry width="50" height="50" relative="1" as="geometry">
            <mxPoint x="-735" y="1240" as="sourcePoint" />
            <mxPoint x="-713" y="270" as="targetPoint" />
          </mxGeometry>
        </mxCell>
        <mxCell id="1QhZOuZquOIHlOz2GY8C-179" value="" style="endArrow=none;dashed=1;html=1;dashPattern=1 3;strokeWidth=2;rounded=0;entryX=0.5;entryY=1;entryDx=0;entryDy=0;" edge="1" parent="1" target="1QhZOuZquOIHlOz2GY8C-174">
          <mxGeometry width="50" height="50" relative="1" as="geometry">
            <mxPoint x="-190" y="1240" as="sourcePoint" />
            <mxPoint x="45" y="470" as="targetPoint" />
          </mxGeometry>
        </mxCell>
        <mxCell id="1QhZOuZquOIHlOz2GY8C-180" value="" style="endArrow=none;dashed=1;html=1;dashPattern=1 3;strokeWidth=2;rounded=0;entryX=0.5;entryY=1;entryDx=0;entryDy=0;" edge="1" parent="1" target="1QhZOuZquOIHlOz2GY8C-175">
          <mxGeometry width="50" height="50" relative="1" as="geometry">
            <mxPoint x="145" y="1240" as="sourcePoint" />
            <mxPoint x="215" y="470" as="targetPoint" />
          </mxGeometry>
        </mxCell>
        <mxCell id="1QhZOuZquOIHlOz2GY8C-182" value="" style="endArrow=classic;html=1;rounded=0;" edge="1" parent="1">
          <mxGeometry width="50" height="50" relative="1" as="geometry">
            <mxPoint x="-730" y="260" as="sourcePoint" />
            <mxPoint x="-580" y="260" as="targetPoint" />
          </mxGeometry>
        </mxCell>
        <mxCell id="1QhZOuZquOIHlOz2GY8C-183" value="Clic en confirmar pedido" style="edgeLabel;html=1;align=center;verticalAlign=middle;resizable=0;points=[];" connectable="0" vertex="1" parent="1QhZOuZquOIHlOz2GY8C-182">
          <mxGeometry x="-0.1758" y="4" relative="1" as="geometry">
            <mxPoint x="8" y="-6" as="offset" />
          </mxGeometry>
        </mxCell>
        <mxCell id="1QhZOuZquOIHlOz2GY8C-184" value="" style="endArrow=classic;html=1;rounded=0;" edge="1" parent="1">
          <mxGeometry width="50" height="50" relative="1" as="geometry">
            <mxPoint x="-580" y="310" as="sourcePoint" />
            <mxPoint x="-410" y="310" as="targetPoint" />
          </mxGeometry>
        </mxCell>
        <mxCell id="1QhZOuZquOIHlOz2GY8C-185" value="Clic en moderar reviews" style="text;html=1;align=center;verticalAlign=middle;resizable=0;points=[];autosize=1;strokeColor=none;fillColor=none;" vertex="1" parent="1">
          <mxGeometry x="-565" y="280" width="150" height="30" as="geometry" />
        </mxCell>
        <mxCell id="1QhZOuZquOIHlOz2GY8C-186" value="V_revisar-reviews" style="rounded=0;whiteSpace=wrap;html=1;fillColor=#ffe6cc;strokeColor=#d79b00;" vertex="1" parent="1">
          <mxGeometry x="-470" y="140" width="120" height="60" as="geometry" />
        </mxCell>
        <mxCell id="1QhZOuZquOIHlOz2GY8C-187" value="" style="endArrow=none;dashed=1;html=1;dashPattern=1 3;strokeWidth=2;rounded=0;entryX=0.5;entryY=1;entryDx=0;entryDy=0;" edge="1" parent="1" target="1QhZOuZquOIHlOz2GY8C-186">
          <mxGeometry width="50" height="50" relative="1" as="geometry">
            <mxPoint x="-410" y="1240" as="sourcePoint" />
            <mxPoint x="-380" y="340" as="targetPoint" />
          </mxGeometry>
        </mxCell>
        <mxCell id="1QhZOuZquOIHlOz2GY8C-188" value="" style="endArrow=classic;html=1;rounded=0;" edge="1" parent="1">
          <mxGeometry width="50" height="50" relative="1" as="geometry">
            <mxPoint x="-410" y="340" as="sourcePoint" />
            <mxPoint x="-200" y="340" as="targetPoint" />
          </mxGeometry>
        </mxCell>
        <mxCell id="1QhZOuZquOIHlOz2GY8C-189" value="GET/api/revisar-admin()" style="text;html=1;align=center;verticalAlign=middle;resizable=0;points=[];autosize=1;strokeColor=none;fillColor=none;" vertex="1" parent="1">
          <mxGeometry x="-405" y="308" width="150" height="30" as="geometry" />
        </mxCell>
        <mxCell id="1QhZOuZquOIHlOz2GY8C-190" value="" style="endArrow=classic;html=1;rounded=0;" edge="1" parent="1">
          <mxGeometry width="50" height="50" relative="1" as="geometry">
            <mxPoint x="-195" y="370" as="sourcePoint" />
            <mxPoint x="145" y="370" as="targetPoint" />
          </mxGeometry>
        </mxCell>
        <mxCell id="1QhZOuZquOIHlOz2GY8C-191" value="SELECT * FROM reviews WHERE aprovado = false" style="text;html=1;align=center;verticalAlign=middle;resizable=0;points=[];autosize=1;strokeColor=none;fillColor=none;" vertex="1" parent="1">
          <mxGeometry x="-175" y="338" width="300" height="30" as="geometry" />
        </mxCell>
        <mxCell id="1QhZOuZquOIHlOz2GY8C-192" value="" style="endArrow=classic;html=1;rounded=0;" edge="1" parent="1">
          <mxGeometry width="50" height="50" relative="1" as="geometry">
            <mxPoint x="145" y="430" as="sourcePoint" />
            <mxPoint x="-195" y="430" as="targetPoint" />
          </mxGeometry>
        </mxCell>
        <mxCell id="1QhZOuZquOIHlOz2GY8C-193" value="id, productId, texto, imagen, fecha, aprovado" style="text;html=1;align=center;verticalAlign=middle;resizable=0;points=[];autosize=1;strokeColor=none;fillColor=none;" vertex="1" parent="1">
          <mxGeometry x="-155" y="398" width="260" height="30" as="geometry" />
        </mxCell>
        <mxCell id="1QhZOuZquOIHlOz2GY8C-194" value="" style="endArrow=classic;html=1;rounded=0;" edge="1" parent="1">
          <mxGeometry width="50" height="50" relative="1" as="geometry">
            <mxPoint x="-200" y="460" as="sourcePoint" />
            <mxPoint x="-410" y="460" as="targetPoint" />
          </mxGeometry>
        </mxCell>
        <mxCell id="1QhZOuZquOIHlOz2GY8C-195" value="{ reviews }" style="text;html=1;align=center;verticalAlign=middle;resizable=0;points=[];autosize=1;strokeColor=none;fillColor=none;" vertex="1" parent="1">
          <mxGeometry x="-370" y="420" width="80" height="30" as="geometry" />
        </mxCell>
        <mxCell id="1QhZOuZquOIHlOz2GY8C-204" value="" style="endArrow=classic;html=1;rounded=0;" edge="1" parent="1">
          <mxGeometry width="50" height="50" relative="1" as="geometry">
            <mxPoint x="-415" y="499" as="sourcePoint" />
            <mxPoint x="-735" y="499" as="targetPoint" />
          </mxGeometry>
        </mxCell>
        <mxCell id="1QhZOuZquOIHlOz2GY8C-205" value="Muestra reviews" style="text;html=1;align=center;verticalAlign=middle;resizable=0;points=[];autosize=1;strokeColor=none;fillColor=none;" vertex="1" parent="1">
          <mxGeometry x="-565" y="459" width="110" height="30" as="geometry" />
        </mxCell>
        <mxCell id="1QhZOuZquOIHlOz2GY8C-206" value="" style="endArrow=classic;html=1;rounded=0;" edge="1" parent="1">
          <mxGeometry width="50" height="50" relative="1" as="geometry">
            <mxPoint x="-730" y="550" as="sourcePoint" />
            <mxPoint x="-415" y="550" as="targetPoint" />
          </mxGeometry>
        </mxCell>
        <mxCell id="1QhZOuZquOIHlOz2GY8C-207" value="Clic botÃ³n Aprobar" style="text;html=1;align=center;verticalAlign=middle;resizable=0;points=[];autosize=1;strokeColor=none;fillColor=none;" vertex="1" parent="1">
          <mxGeometry x="-565" y="510" width="120" height="30" as="geometry" />
        </mxCell>
        <mxCell id="1QhZOuZquOIHlOz2GY8C-208" value="" style="endArrow=classic;html=1;rounded=0;" edge="1" parent="1">
          <mxGeometry width="50" height="50" relative="1" as="geometry">
            <mxPoint x="-410" y="580" as="sourcePoint" />
            <mxPoint x="-190" y="580" as="targetPoint" />
          </mxGeometry>
        </mxCell>
        <mxCell id="1QhZOuZquOIHlOz2GY8C-209" value="POST/api/revisar-admin( id, state=1)" style="text;html=1;align=center;verticalAlign=middle;resizable=0;points=[];autosize=1;strokeColor=none;fillColor=none;" vertex="1" parent="1">
          <mxGeometry x="-410" y="540" width="220" height="30" as="geometry" />
        </mxCell>
        <mxCell id="1QhZOuZquOIHlOz2GY8C-210" value="" style="endArrow=classic;html=1;rounded=0;" edge="1" parent="1">
          <mxGeometry width="50" height="50" relative="1" as="geometry">
            <mxPoint x="-190" y="600" as="sourcePoint" />
            <mxPoint x="140" y="600" as="targetPoint" />
          </mxGeometry>
        </mxCell>
        <mxCell id="1QhZOuZquOIHlOz2GY8C-211" value="UPDATE reviews SET aprovado = ? WHERE id = ?, [true, id]" style="text;html=1;align=center;verticalAlign=middle;resizable=0;points=[];autosize=1;strokeColor=none;fillColor=none;" vertex="1" parent="1">
          <mxGeometry x="-200" y="560" width="350" height="30" as="geometry" />
        </mxCell>
        <mxCell id="1QhZOuZquOIHlOz2GY8C-212" value="" style="endArrow=classic;html=1;rounded=0;dashed=1;" edge="1" parent="1">
          <mxGeometry width="50" height="50" relative="1" as="geometry">
            <mxPoint x="150" y="640" as="sourcePoint" />
            <mxPoint x="-190" y="640" as="targetPoint" />
          </mxGeometry>
        </mxCell>
        <mxCell id="1QhZOuZquOIHlOz2GY8C-213" value="Confirmacion de update" style="text;html=1;align=center;verticalAlign=middle;resizable=0;points=[];autosize=1;strokeColor=none;fillColor=none;" vertex="1" parent="1">
          <mxGeometry x="-145" y="608" width="150" height="30" as="geometry" />
        </mxCell>
        <mxCell id="1QhZOuZquOIHlOz2GY8C-214" value="" style="endArrow=classic;html=1;rounded=0;" edge="1" parent="1">
          <mxGeometry width="50" height="50" relative="1" as="geometry">
            <mxPoint x="-200" y="660" as="sourcePoint" />
            <mxPoint x="-410" y="660" as="targetPoint" />
          </mxGeometry>
        </mxCell>
        <mxCell id="1QhZOuZquOIHlOz2GY8C-215" value="{ state=true }" style="text;html=1;align=center;verticalAlign=middle;resizable=0;points=[];autosize=1;strokeColor=none;fillColor=none;" vertex="1" parent="1">
          <mxGeometry x="-355" y="628" width="90" height="30" as="geometry" />
        </mxCell>
        <mxCell id="1QhZOuZquOIHlOz2GY8C-216" value="" style="endArrow=classic;html=1;rounded=0;" edge="1" parent="1">
          <mxGeometry width="50" height="50" relative="1" as="geometry">
            <mxPoint x="-410" y="710" as="sourcePoint" />
            <mxPoint x="-410" y="730" as="targetPoint" />
            <Array as="points">
              <mxPoint x="-340" y="710" />
              <mxPoint x="-340" y="730" />
            </Array>
          </mxGeometry>
        </mxCell>
        <mxCell id="1QhZOuZquOIHlOz2GY8C-217" value="Muestra mensaje de confirmacion" style="text;html=1;align=center;verticalAlign=middle;resizable=0;points=[];autosize=1;strokeColor=none;fillColor=none;" vertex="1" parent="1">
          <mxGeometry x="-415" y="678" width="200" height="30" as="geometry" />
        </mxCell>
        <mxCell id="1QhZOuZquOIHlOz2GY8C-218" value="" style="endArrow=classic;html=1;rounded=0;" edge="1" parent="1">
          <mxGeometry width="50" height="50" relative="1" as="geometry">
            <mxPoint x="-410" y="780" as="sourcePoint" />
            <mxPoint x="-410" y="810" as="targetPoint" />
            <Array as="points">
              <mxPoint x="-340" y="780" />
              <mxPoint x="-340" y="810" />
            </Array>
          </mxGeometry>
        </mxCell>
        <mxCell id="1QhZOuZquOIHlOz2GY8C-219" value="recarga la pagina" style="text;html=1;align=center;verticalAlign=middle;resizable=0;points=[];autosize=1;strokeColor=none;fillColor=none;" vertex="1" parent="1">
          <mxGeometry x="-405" y="748" width="120" height="30" as="geometry" />
        </mxCell>
        <mxCell id="1QhZOuZquOIHlOz2GY8C-220" value="" style="endArrow=classic;html=1;rounded=0;" edge="1" parent="1">
          <mxGeometry width="50" height="50" relative="1" as="geometry">
            <mxPoint x="-410" y="830" as="sourcePoint" />
            <mxPoint x="-740" y="830" as="targetPoint" />
          </mxGeometry>
        </mxCell>
        <mxCell id="1QhZOuZquOIHlOz2GY8C-221" value="Muestra lista de reviews actualizada" style="text;html=1;align=center;verticalAlign=middle;resizable=0;points=[];autosize=1;strokeColor=none;fillColor=none;" vertex="1" parent="1">
          <mxGeometry x="-640" y="798" width="220" height="30" as="geometry" />
        </mxCell>
        <mxCell id="1QhZOuZquOIHlOz2GY8C-222" value="" style="endArrow=classic;html=1;rounded=0;" edge="1" parent="1">
          <mxGeometry width="50" height="50" relative="1" as="geometry">
            <mxPoint x="-730" y="900" as="sourcePoint" />
            <mxPoint x="-415" y="900" as="targetPoint" />
          </mxGeometry>
        </mxCell>
        <mxCell id="1QhZOuZquOIHlOz2GY8C-223" value="Clic botÃ³n Rechazar" style="text;html=1;align=center;verticalAlign=middle;resizable=0;points=[];autosize=1;strokeColor=none;fillColor=none;" vertex="1" parent="1">
          <mxGeometry x="-575" y="870" width="130" height="30" as="geometry" />
        </mxCell>
        <mxCell id="1QhZOuZquOIHlOz2GY8C-224" value="" style="endArrow=classic;html=1;rounded=0;" edge="1" parent="1">
          <mxGeometry width="50" height="50" relative="1" as="geometry">
            <mxPoint x="-410" y="930" as="sourcePoint" />
            <mxPoint x="-190" y="930" as="targetPoint" />
          </mxGeometry>
        </mxCell>
        <mxCell id="1QhZOuZquOIHlOz2GY8C-225" value="POST/api/revisar-admin( id, state=0)" style="text;html=1;align=center;verticalAlign=middle;resizable=0;points=[];autosize=1;strokeColor=none;fillColor=none;" vertex="1" parent="1">
          <mxGeometry x="-410" y="890" width="220" height="30" as="geometry" />
        </mxCell>
        <mxCell id="1QhZOuZquOIHlOz2GY8C-226" value="" style="endArrow=classic;html=1;rounded=0;" edge="1" parent="1">
          <mxGeometry width="50" height="50" relative="1" as="geometry">
            <mxPoint x="-190" y="950" as="sourcePoint" />
            <mxPoint x="140" y="950" as="targetPoint" />
          </mxGeometry>
        </mxCell>
        <mxCell id="1QhZOuZquOIHlOz2GY8C-227" value="DELETE FROM reviews WHERE id = ?, id" style="text;html=1;align=center;verticalAlign=middle;resizable=0;points=[];autosize=1;strokeColor=none;fillColor=none;" vertex="1" parent="1">
          <mxGeometry x="-150" y="910" width="250" height="30" as="geometry" />
        </mxCell>
        <mxCell id="1QhZOuZquOIHlOz2GY8C-228" value="" style="endArrow=classic;html=1;rounded=0;dashed=1;" edge="1" parent="1">
          <mxGeometry width="50" height="50" relative="1" as="geometry">
            <mxPoint x="150" y="990" as="sourcePoint" />
            <mxPoint x="-190" y="990" as="targetPoint" />
          </mxGeometry>
        </mxCell>
        <mxCell id="1QhZOuZquOIHlOz2GY8C-229" value="Confirmacion de update" style="text;html=1;align=center;verticalAlign=middle;resizable=0;points=[];autosize=1;strokeColor=none;fillColor=none;" vertex="1" parent="1">
          <mxGeometry x="-145" y="958" width="150" height="30" as="geometry" />
        </mxCell>
        <mxCell id="1QhZOuZquOIHlOz2GY8C-230" value="" style="endArrow=classic;html=1;rounded=0;" edge="1" parent="1">
          <mxGeometry width="50" height="50" relative="1" as="geometry">
            <mxPoint x="-200" y="1010" as="sourcePoint" />
            <mxPoint x="-410" y="1010" as="targetPoint" />
          </mxGeometry>
        </mxCell>
        <mxCell id="1QhZOuZquOIHlOz2GY8C-231" value="{ state=false }" style="text;html=1;align=center;verticalAlign=middle;resizable=0;points=[];autosize=1;strokeColor=none;fillColor=none;" vertex="1" parent="1">
          <mxGeometry x="-360" y="978" width="100" height="30" as="geometry" />
        </mxCell>
        <mxCell id="1QhZOuZquOIHlOz2GY8C-232" value="" style="endArrow=classic;html=1;rounded=0;" edge="1" parent="1">
          <mxGeometry width="50" height="50" relative="1" as="geometry">
            <mxPoint x="-410" y="1060" as="sourcePoint" />
            <mxPoint x="-410" y="1080" as="targetPoint" />
            <Array as="points">
              <mxPoint x="-340" y="1060" />
              <mxPoint x="-340" y="1080" />
            </Array>
          </mxGeometry>
        </mxCell>
        <mxCell id="1QhZOuZquOIHlOz2GY8C-233" value="Muestra mensaje de confirmacion" style="text;html=1;align=center;verticalAlign=middle;resizable=0;points=[];autosize=1;strokeColor=none;fillColor=none;" vertex="1" parent="1">
          <mxGeometry x="-415" y="1028" width="200" height="30" as="geometry" />
        </mxCell>
        <mxCell id="1QhZOuZquOIHlOz2GY8C-234" value="" style="endArrow=classic;html=1;rounded=0;" edge="1" parent="1">
          <mxGeometry width="50" height="50" relative="1" as="geometry">
            <mxPoint x="-410" y="1130" as="sourcePoint" />
            <mxPoint x="-410" y="1160" as="targetPoint" />
            <Array as="points">
              <mxPoint x="-340" y="1130" />
              <mxPoint x="-340" y="1160" />
            </Array>
          </mxGeometry>
        </mxCell>
        <mxCell id="1QhZOuZquOIHlOz2GY8C-235" value="recarga la pagina" style="text;html=1;align=center;verticalAlign=middle;resizable=0;points=[];autosize=1;strokeColor=none;fillColor=none;" vertex="1" parent="1">
          <mxGeometry x="-405" y="1098" width="120" height="30" as="geometry" />
        </mxCell>
        <mxCell id="1QhZOuZquOIHlOz2GY8C-236" value="" style="endArrow=classic;html=1;rounded=0;" edge="1" parent="1">
          <mxGeometry width="50" height="50" relative="1" as="geometry">
            <mxPoint x="-410" y="1180" as="sourcePoint" />
            <mxPoint x="-740" y="1180" as="targetPoint" />
          </mxGeometry>
        </mxCell>
        <mxCell id="1QhZOuZquOIHlOz2GY8C-237" value="Muestra lista de reviews actualizada" style="text;html=1;align=center;verticalAlign=middle;resizable=0;points=[];autosize=1;strokeColor=none;fillColor=none;" vertex="1" parent="1">
          <mxGeometry x="-640" y="1148" width="220" height="30" as="geometry" />
        </mxCell>
        <mxCell id="1QhZOuZquOIHlOz2GY8C-238" value="" style="endArrow=none;dashed=1;html=1;dashPattern=1 3;strokeWidth=2;rounded=0;entryX=0.5;entryY=1;entryDx=0;entryDy=0;" edge="1" parent="1" target="1QhZOuZquOIHlOz2GY8C-173">
          <mxGeometry width="50" height="50" relative="1" as="geometry">
            <mxPoint x="-580" y="1240" as="sourcePoint" />
            <mxPoint x="-550" y="360" as="targetPoint" />
          </mxGeometry>
        </mxCell>
      </root>
    </mxGraphModel>
  </diagram>
</mxfile>
